<svg xmlns="http://www.w3.org/2000/svg" version="1.1" xmlns:xlink="http://www.w3.org/1999/xlink" xmlns:svgjs="http://svgjs.dev/svgjs" width="100%" height="100%" viewBox="0 0 1000 600"><rect width="1000" height="600" x="0" y="0" fill="#36cecc"/><g><circle r="166.66666666666666" cx="332.97071329752606" cy="355.1929261379839" fill="#f7f3cf" transform="matrix(0.7516355322262558,0,0,0.7516355322262558,0,33.02440260551927)"/><path d="M309.3099984430408 430.19289437580994L221.86952489985777 430.19289437580994Q219.51833449485045 430.19289437580994 218.23857262883382 428.7940848943499Q216.92904885895632 427.3952754128899 216.92904885895632 425.2524183349085L216.92904885895632 425.2524183349085L216.92904885895632 285.1333749580175Q216.92904885895632 282.9905178800361 218.23857262883382 281.5917083985761Q219.51833449485045 280.19289891711605 221.86952489985777 280.19289891711605L221.86952489985777 280.19289891711605L233.23857217470322 280.19289891711605Q235.38142925268454 280.19289891711605 236.75047683028373 281.5917083985761Q238.14928631174377 282.9905178800361 238.14928631174377 285.1333749580175L238.14928631174377 285.1333749580175L238.14928631174377 411.5619425589166L309.3099984430408 411.5619425589166Q311.66118884804814 411.5619425589166 313.0599983295082 412.9309901365158Q314.42904590710737 414.3297996179758 314.42904590710737 416.68099002298317L314.42904590710737 416.68099002298317L314.42904590710737 425.2524183349085Q314.42904590710737 427.3952754128899 313.0599983295082 428.7940848943499Q311.66118884804814 430.19289437580994 309.3099984430408 430.19289437580994L309.3099984430408 430.19289437580994ZM353.8635685227362 430.19289437580994L342.5242831517516 430.19289437580994Q340.1433308428835 430.19289437580994 338.8635689768668 428.7940848943499Q337.58380711085016 427.3952754128899 337.58380711085016 425.2524183349085L337.58380711085016 425.2524183349085L337.58380711085016 285.34170828504347Q337.58380711085016 282.9905178800361 338.8635689768668 281.5917083985761Q340.1433308428835 280.19289891711605 342.5242831517516 280.19289891711605L342.5242831517516 280.19289891711605L396.92904340938895 280.19289891711605Q412.7921381672231 280.19289891711605 424.4885663845379 285.34170828504347Q436.15523269799183 290.4905176529709 442.58380393193585 300.6690887733822Q449.01237516587986 310.84765989379355 449.01237516587986 326.0559927666889L449.01237516587986 326.0559927666889Q449.01237516587986 341.2643256395843 442.58380393193585 351.32384914455224Q436.15523269799183 361.41313455338104 424.4885663845379 366.56194392130845Q412.7921381672231 371.680991385375 396.92904340938895 371.680991385375L396.92904340938895 371.680991385375L359.0123778906636 371.680991385375L359.0123778906636 425.2524183349085Q359.0123778906636 427.3952754128899 357.61356840920354 428.7940848943499Q356.2147589277435 430.19289437580994 353.8635685227362 430.19289437580994L353.8635685227362 430.19289437580994ZM358.8040445636376 298.1988507529315L358.8040445636376 353.70480145342043L395.8576148703983 353.70480145342043Q411.7207096282323 353.70480145342043 419.66713795907987 346.62146833453767Q427.5838043860665 339.53813521565485 427.5838043860665 326.0559927666889L427.5838043860665 326.0559927666889Q427.5838043860665 312.7524217408881 419.87547128610584 305.4905171988403Q412.16713818614517 298.1988507529315 395.8576148703983 298.1988507529315L395.8576148703983 298.1988507529315L358.8040445636376 298.1988507529315Z " fill="#176585" transform="matrix(0.7516355322262558,0,0,0.7516355322262558,0,33.02440260551927)"/><path d="M629.4753407058162 400.19289388131256L629.4753407058162 400.19289388131256Q614.1281192063717 400.19289388131256 604.0586752361481 394.5215978521061Q593.9660831188663 388.8503018228996 588.8040463249356 378.688265264444Q583.6420095310049 368.52622870598833 583.1327502957291 355.0308589711828L583.1327502957291 355.0308589711828Q582.9707132663233 348.20215558907705 582.9707132663233 340.35493373642Q582.9707132663233 332.53086003082086 583.1327502957291 325.3549344428454L583.1327502957291 325.3549344428454Q583.6420095310049 311.8595647080398 588.8040463249356 301.6975281495842Q593.9660831188663 291.53549159112856 604.0586752361481 285.8641955619221Q614.1281192063717 280.1928995327156 629.4753407058162 280.1928995327156L629.4753407058162 280.1928995327156Q640.979969793635 280.1928995327156 649.6373767933216 283.36419567965964Q658.2947837930082 286.5354918266037 664.0586724104465 291.85956564994035Q669.7994128808269 297.18363947327697 672.8086719983651 303.78086138480285Q675.7947829688452 310.3549351492708 676.142005174715 317.36882370784036L676.142005174715 317.36882370784036Q676.3040422041208 318.8503051195514 675.2160792923955 319.8688235901028Q674.1281163806702 320.8641939135962 672.6466349689591 320.8641939135962L672.6466349689591 320.8641939135962L663.4799687339969 320.8641939135962Q661.9753391752278 320.8641939135962 660.8873762635025 320.0308606195087Q659.7994133517772 319.1975273254212 659.3133022635594 317.02160150197057L659.3133022635594 317.02160150197057Q656.4660801754272 304.0354910024407 648.7114509110021 299.19752826732173Q640.979969793635 294.35956553220274 629.4753407058162 294.35956553220274L629.4753407058162 294.35956553220274Q615.9799709710106 294.35956553220274 608.1327491183534 301.95215776722205Q600.3086754127545 309.52160185518323 599.7994161774787 326.18826773693286L599.7994161774787 326.18826773693286Q599.313305089261 339.8688226482023 599.7994161774787 354.1975256770953L599.7994161774787 354.1975256770953Q600.3086754127545 370.8641915588449 608.1327491183534 378.4336356468061Q615.9799709710106 386.0262278818254 629.4753407058162 386.0262278818254L629.4753407058162 386.0262278818254Q640.979969793635 386.0262278818254 648.7114509110021 381.18826514670644Q656.4660801754272 376.35030241158745 659.3133022635594 363.36419191205755L659.3133022635594 363.36419191205755Q659.7994133517772 361.18826608860695 660.8873762635025 360.35493279451947Q661.9753391752278 359.521599500432 663.4799687339969 359.521599500432L663.4799687339969 359.521599500432L672.6466349689591 359.521599500432Q674.1281163806702 359.521599500432 675.2160792923955 360.4475253827514Q676.3040422041208 361.35030311801285 676.142005174715 362.8549326767819L676.142005174715 362.8549326767819Q675.7947829688452 369.8688212353515 672.8086719983651 376.53548758805135Q669.7994128808269 383.20215394075115 664.0586724104465 388.5262277640878Q658.2947837930082 393.8503015874245 649.6373767933216 397.0215977343685Q640.979969793635 400.19289388131256 629.4753407058162 400.19289388131256ZM708.6420036441266 398.5262272931376L700.3086707032518 398.5262272931376Q698.6420041150769 398.5262272931376 697.5540412033515 397.43826438141224Q696.4660782916262 396.35030146968694 696.4660782916262 394.683634881512L696.4660782916262 394.683634881512L696.4660782916262 284.03549194434123Q696.4660782916262 282.36882535616627 697.5540412033515 281.2808624444409Q698.6420041150769 280.1928995327156 700.3086707032518 280.1928995327156L700.3086707032518 280.1928995327156L708.6420036441266 280.1928995327156Q710.4707072617075 280.1928995327156 711.4660775852009 281.2808624444409Q712.4614479086943 282.36882535616627 712.4614479086943 284.03549194434123L712.4614479086943 284.03549194434123L712.4614479086943 322.85493456058293Q716.9753365850014 317.18363853137646 723.4799659082953 313.68826832562064Q729.9614470845313 310.1928981198648 739.9614466135811 310.1928981198648L739.9614466135811 310.1928981198648Q750.7947794367183 310.1928981198648 758.3873716717375 314.9382682667519Q765.9799639067568 319.6836384136389 769.8920007595563 328.10956394274564Q773.8040376123558 336.5354894718524 773.8040376123558 347.6928963538014L773.8040376123558 347.6928963538014L773.8040376123558 394.683634881512Q773.8040376123558 396.35030146968694 772.8086672888625 397.43826438141224Q771.8132969653691 398.5262272931376 769.9614452007303 398.5262272931376L769.9614452007303 398.5262272931376L761.6281122598555 398.5262272931376Q759.9614456716805 398.5262272931376 758.8966309070132 397.43826438141224Q757.8086679952878 396.35030146968694 757.8086679952878 394.683634881512L757.8086679952878 394.683634881512L757.8086679952878 348.52622964788884Q757.8086679952878 336.85956353066416 752.1373719660814 330.2854897661963Q746.466075936875 323.6882678546704 735.4707060843318 323.6882678546704L735.4707060843318 323.6882678546704Q725.1466324964703 323.6882678546704 718.8040402025823 330.2854897661963Q712.4614479086943 336.85956353066416 712.4614479086943 348.52622964788884L712.4614479086943 348.52622964788884L712.4614479086943 394.683634881512Q712.4614479086943 396.35030146968694 711.4660775852009 397.43826438141224Q710.4707072617075 398.5262272931376 708.6420036441266 398.5262272931376L708.6420036441266 398.5262272931376ZM830.1466275514925 400.19289388131256L830.1466275514925 400.19289388131256Q819.4753317577612 400.19289388131256 812.0447765521479 395.4475237344255Q804.6373694935925 390.7021535875385 800.7947770819669 382.1836354701998Q796.9753328173994 373.6882654999191 796.9753328173994 362.69289564737596L796.9753328173994 362.69289564737596L796.9753328173994 315.7021571196654Q796.9753328173994 314.03549053149044 798.0632957291247 312.94752761976514Q799.128110493792 311.8595647080398 800.7947770819669 311.8595647080398L800.7947770819669 311.8595647080398L809.1281100228417 311.8595647080398Q810.7947766110167 311.8595647080398 811.882739522742 312.94752761976514Q812.9707024344674 314.03549053149044 812.9707024344674 315.7021571196654L812.9707024344674 315.7021571196654L812.9707024344674 361.85956235328854Q812.9707024344674 386.69752414650696 834.6373680807418 386.69752414650696L834.6373680807418 386.69752414650696Q844.9614416686032 386.69752414650696 851.2114413742594 380.1003022349811Q857.4614410799155 373.5262284705132 857.4614410799155 361.85956235328854L857.4614410799155 361.85956235328854L857.4614410799155 315.7021571196654Q857.4614410799155 314.03549053149044 858.5494039916408 312.94752761976514Q859.6373669033661 311.8595647080398 861.3040334915412 311.8595647080398L861.3040334915412 311.8595647080398L869.6373664324159 311.8595647080398Q871.3040330205907 311.8595647080398 872.2994033440842 312.94752761976514Q873.2947736675776 314.03549053149044 873.2947736675776 315.7021571196654L873.2947736675776 315.7021571196654L873.2947736675776 394.683634881512Q873.2947736675776 396.35030146968694 872.2994033440842 397.43826438141224Q871.3040330205907 398.5262272931376 869.6373664324159 398.5262272931376L869.6373664324159 398.5262272931376L861.8132927268167 398.5262272931376Q860.1466261386419 398.5262272931376 859.0586632269166 397.43826438141224Q857.9707003151912 396.35030146968694 857.9707003151912 394.683634881512L857.9707003151912 394.683634881512L857.9707003151912 387.36882041118855Q853.479959785942 393.2021534698009 847.044774903822 396.69752367555674Q840.63273816876 400.19289388131256 830.1466275514925 400.19289388131256ZM910.3086608132963 430.19289246846176L902.1373649018275 430.19289246846176Q900.4706983136525 430.19289246846176 899.3827354019272 429.10492955673647Q898.2947724902018 428.0169666450111 898.2947724902018 426.3503000568362L898.2947724902018 426.3503000568362L898.2947724902018 315.7021571196654Q898.2947724902018 314.03549053149044 899.3827354019272 312.94752761976514Q900.4706983136525 311.8595647080398 902.1373649018275 311.8595647080398L902.1373649018275 311.8595647080398L909.7994015780207 311.8595647080398Q911.4660681661957 311.8595647080398 912.554031077921 312.94752761976514Q913.6419939896463 314.03549053149044 913.6419939896463 315.7021571196654L913.6419939896463 315.7021571196654L913.6419939896463 323.0169715899888Q917.6466234306778 317.53086073724626 924.3132897833776 313.8503053550266Q930.9799561360775 310.1928981198648 940.9799556651272 310.1928981198648L940.9799556651272 310.1928981198648Q950.3086589294954 310.1928981198648 956.8827326939632 313.36419426680885Q963.4799546054891 316.5354904137529 967.7160655171004 322.02160126649545Q971.9753245757698 327.530860266296 974.1281022521625 334.5216006778076Q976.3040280756131 341.53548923637726 976.6281021344249 349.5215999713822L976.6281021344249 349.5215999713822Q976.8132873108888 352.18363688305055 976.8132873108888 355.1928960005887Q976.8132873108888 358.2021551181268 976.6281021344249 360.86419202979516L976.6281021344249 360.86419202979516Q976.3040280756131 368.6882657353942 974.1281022521625 375.7715987351378Q971.9753245757698 382.8549317348814 967.7160655171004 388.27159814645Q963.4799546054891 393.6882645580186 956.8827326939632 396.95215329319456Q950.3086589294954 400.19289388131256 940.9799556651272 400.19289388131256L940.9799556651272 400.19289388131256Q931.3040301948894 400.19289388131256 924.7299564304213 396.60493108732476Q918.1327345188955 393.016968293337 913.9660680484582 387.69289447000034L913.9660680484582 387.69289447000034L913.9660680484582 426.3503000568362Q913.9660680484582 428.0169666450111 912.9706977249647 429.10492955673647Q911.9753274014714 430.19289246846176 910.3086608132963 430.19289246846176L910.3086608132963 430.19289246846176ZM937.4614373123135 386.69752414650696L937.4614373123135 386.69752414650696Q946.141992459058 386.69752414650696 951.0493996353509 382.9475243231133Q955.9799549587018 379.19752449971963 958.1327326350944 373.10956182346945Q960.3086584585452 367.02159914721926 960.6327325173569 360.0308587357077L960.6327325173569 360.0308587357077Q960.7947695467627 355.1928960005887 960.6327325173569 350.3549332654697L960.6327325173569 350.3549332654697Q960.3086584585452 343.3641928539581 958.1327326350944 337.27623017770793Q955.9799549587018 331.1882675014577 951.0493996353509 327.43826767806405Q946.141992459058 323.6882678546704 937.4614373123135 323.6882678546704L937.4614373123135 323.6882678546704Q929.3132895479024 323.6882678546704 924.2206971951457 327.530860266296Q919.1281048423888 331.3503045308636 916.7206975483584 337.27623017770793Q914.3132902543279 343.20215582455216 913.9660680484582 349.3595629419763L913.9660680484582 349.3595629419763Q913.8040310190523 352.02159985364466 913.8040310190523 355.7021552358644Q913.8040310190523 359.3595624710261 913.9660680484582 362.1836364121003L913.9660680484582 362.1836364121003Q914.128105077864 368.01696947071264 916.7206975483584 373.6882654999191Q919.3132900188529 379.3595615291256 924.4753268127835 383.0169687642873Q929.6373636067143 386.69752414650696 937.4614373123135 386.69752414650696ZM1032.1373587794742 400.19289388131256L1032.1373587794742 400.19289388131256Q1014.7993966330431 400.19289388131256 1004.6373600745874 389.6141906758131Q994.4753235161318 379.0354874703138 993.4799531926384 360.7021550003892L993.4799531926384 360.7021550003892Q993.2947680161745 358.5262291769386 993.2947680161745 355.10030341235677Q993.2947680161745 351.69752579483287 993.4799531926384 349.5215999713822L993.4799531926384 349.5215999713822Q994.128101310262 337.69289682475164 998.9660640453809 328.7808602074272Q1003.8040267804998 319.8688235901028 1012.2299523096066 315.0308608549838Q1020.6327296916553 310.1928981198648 1031.9753217500684 310.1928981198648L1031.9753217500684 310.1928981198648Q1044.6373581907865 310.1928981198648 1053.225320749299 315.5169719432015Q1061.8132833078116 320.8641939135962 1066.3040238370609 330.70215641324Q1070.7947643663101 340.5169707658259 1070.7947643663101 353.6882664418196L1070.7947643663101 353.6882664418196L1070.7947643663101 356.53548852995186Q1070.7947643663101 358.3641921475327 1069.7299496016426 359.3595624710261Q1068.6419866899173 360.35493279451947 1066.9753201017425 360.35493279451947L1066.9753201017425 360.35493279451947L1009.3132857803004 360.35493279451947Q1009.3132857803004 360.51696982392536 1009.3132857803004 361.02622905920106Q1009.3132857803004 361.5354882944767 1009.3132857803004 361.85956235328854L1009.3132857803004 361.85956235328854Q1009.6373598391123 368.6882657353942 1012.2993967507806 374.6141913822385Q1014.9614336624489 380.51696888202486 1020.0540260152057 384.1975242642445Q1025.1466183679627 387.85493149940623 1031.9753217500684 387.85493149940623L1031.9753217500684 387.85493149940623Q1037.9706918380866 387.85493149940623 1041.975321279118 386.0262278818254Q1045.9799507201496 384.1975242642445 1048.479950602412 381.95215399961995Q1050.9799504846742 379.6836355879374 1051.813283778762 378.3641912056322L1051.813283778762 378.3641912056322Q1053.2947651904728 376.35030241158745 1054.1280984845603 375.93363576454374Q1054.9614317786477 375.51696911749997 1056.8132835432866 375.51696911749997L1056.8132835432866 375.51696911749997L1064.9614313076977 375.51696911749997Q1066.4660608664667 375.51696911749997 1067.554023778192 376.4428949998194Q1068.6419866899173 377.36882088213883 1068.4799496605115 379.0354874703138L1068.4799496605115 379.0354874703138Q1068.2947644840474 381.5354873525762 1065.7947646017851 385.100301999506Q1063.2947647195228 388.6882647934937 1058.7114316020416 392.18363499924953Q1054.1280984845603 395.7021533520633 1047.3919876906866 397.94752361668793Q1040.6327287497547 400.19289388131256 1032.1373587794742 400.19289388131256ZM1009.3132857803004 348.36419261848295L1009.3132857803004 348.85030370670063L1054.9614317786477 348.85030370670063L1054.9614317786477 348.36419261848295Q1054.9614317786477 340.8641929716957 1052.2299504258058 335.0308599130833Q1049.4753209259052 329.19752685447094 1044.3132841319743 325.7716010898891Q1039.1280991909857 322.36882347236525 1031.9753217500684 322.36882347236525L1031.9753217500684 322.36882347236525Q1024.7993961620928 322.36882347236525 1019.7299519563938 325.7716010898891Q1014.6373596036372 329.19752685447094 1011.9753226919687 335.0308599130833Q1009.3132857803004 340.8641929716957 1009.3132857803004 348.36419261848295L1009.3132857803004 348.36419261848295ZM1125.4706877172716 400.19289388131256L1125.4706877172716 400.19289388131256Q1108.1327255708406 400.19289388131256 1097.9706890123848 389.6141906758131Q1087.8086524539294 379.0354874703138 1086.8132821304357 360.7021550003892L1086.8132821304357 360.7021550003892Q1086.628096953972 358.5262291769386 1086.628096953972 355.10030341235677Q1086.628096953972 351.69752579483287 1086.8132821304357 349.5215999713822L1086.8132821304357 349.5215999713822Q1087.4614302480595 337.69289682475164 1092.2993929831782 328.7808602074272Q1097.1373557182974 319.8688235901028 1105.5632812474041 315.0308608549838Q1113.966058629453 310.1928981198648 1125.3086506878658 310.1928981198648L1125.3086506878658 310.1928981198648Q1137.970687128584 310.1928981198648 1146.5586496870965 315.5169719432015Q1155.146612245609 320.8641939135962 1159.6373527748583 330.70215641324Q1164.1280933041076 340.5169707658259 1164.1280933041076 353.6882664418196L1164.1280933041076 353.6882664418196L1164.1280933041076 356.53548852995186Q1164.1280933041076 358.3641921475327 1163.06327853944 359.3595624710261Q1161.9753156277147 360.35493279451947 1160.30864903954 360.35493279451947L1160.30864903954 360.35493279451947L1102.6466147180981 360.35493279451947Q1102.6466147180981 360.51696982392536 1102.6466147180981 361.02622905920106Q1102.6466147180981 361.5354882944767 1102.6466147180981 361.85956235328854L1102.6466147180981 361.85956235328854Q1102.9706887769098 368.6882657353942 1105.6327256885784 374.6141913822385Q1108.2947626002465 380.51696888202486 1113.3873549530035 384.1975242642445Q1118.47994730576 387.85493149940623 1125.3086506878658 387.85493149940623L1125.3086506878658 387.85493149940623Q1131.304020775884 387.85493149940623 1135.3086502169153 386.0262278818254Q1139.313279657947 384.1975242642445 1141.8132795402094 381.95215399961995Q1144.313279422472 379.6836355879374 1145.1466127165595 378.3641912056322L1145.1466127165595 378.3641912056322Q1146.6280941282703 376.35030241158745 1147.4614274223582 375.93363576454374Q1148.2947607164456 375.51696911749997 1150.1466124810845 375.51696911749997L1150.1466124810845 375.51696911749997L1158.2947602454951 375.51696911749997Q1159.7993898042641 375.51696911749997 1160.8873527159894 376.4428949998194Q1161.9753156277147 377.36882088213883 1161.813278598309 379.0354874703138L1161.813278598309 379.0354874703138Q1161.6280934218453 381.5354873525762 1159.1280935395826 385.100301999506Q1156.6280936573203 388.6882647934937 1152.044760539839 392.18363499924953Q1147.4614274223582 395.7021533520633 1140.725316628484 397.94752361668793Q1133.9660576875522 400.19289388131256 1125.4706877172716 400.19289388131256ZM1102.6466147180981 348.36419261848295L1102.6466147180981 348.85030370670063L1148.2947607164456 348.85030370670063L1148.2947607164456 348.36419261848295Q1148.2947607164456 340.8641929716957 1145.5632793636032 335.0308599130833Q1142.8086498637026 329.19752685447094 1137.6466130697722 325.7716010898891Q1132.4614281287832 322.36882347236525 1125.3086506878658 322.36882347236525L1125.3086506878658 322.36882347236525Q1118.1327250998902 322.36882347236525 1113.0632808941914 325.7716010898891Q1107.9706885414348 329.19752685447094 1105.3086516297662 335.0308599130833Q1102.6466147180981 340.8641929716957 1102.6466147180981 348.36419261848295L1102.6466147180981 348.36419261848295Z " fill="#f7f3cf" transform="matrix(0.7516355322262558,0,0,0.7516355322262558,0,33.02440260551927)"/></g></svg>